<?xml version="1.0" encoding="iso-8859-1"?>
<!-- Uploaded to: SVG Repo, www.svgrepo.com, Generator: SVG Repo Mixer Tools -->
<svg fill="#000000" version="1.1" id="Layer_1" xmlns="http://www.w3.org/2000/svg" xmlns:xlink="http://www.w3.org/1999/xlink" 
	 viewBox="0 0 512 512" xml:space="preserve">
<g>
	<g>
		<g>
			<path d="M483.612,278.812v-7.604c0-60.797-23.676-117.956-66.665-160.946c-37.568-37.567-85.955-60.383-138.135-65.542V22.812
				C278.812,10.233,268.579,0,256,0s-22.812,10.233-22.812,22.812v21.908c-52.179,5.159-100.567,27.974-138.135,65.542
				c-42.99,42.991-66.665,100.149-66.665,160.946v7.604h204.8v46.131h15.208v-46.131h15.208v171.005
				c0,17.516,14.251,31.767,31.767,31.767c17.517,0,31.767-14.251,31.767-31.767c0-4.193,3.412-7.604,7.604-7.604
				c4.193,0,7.604,3.411,7.604,7.604c0,25.902-21.073,46.975-46.975,46.975c-25.902,0-46.975-21.073-46.975-46.975V345.22h-15.208
				v104.597c0,34.288,27.895,62.183,62.183,62.183s62.183-27.895,62.183-62.183c0-12.579-10.233-22.812-22.812-22.812
				c-12.579,0-22.812,10.233-22.812,22.812c0,9.131-7.429,16.559-16.559,16.559c-9.131,0-16.559-7.429-16.559-16.559V278.812
				H483.612z M468.27,263.604h-94.883c-1.809-33.965-14.952-86.119-32.592-128.127c-11.133-26.512-23.286-47.809-36.122-63.296
				c-2.926-3.531-5.875-6.735-8.845-9.616C391.562,80.801,464.73,163.488,468.27,263.604z M248.396,22.812
				c0-4.193,3.411-7.604,7.604-7.604s7.604,3.411,7.604,7.604v20.921c-0.074-0.003-0.147-0.003-0.221-0.006
				c-0.933-0.029-1.865-0.057-2.799-0.075c-1.534-0.033-3.065-0.056-4.584-0.056c-1.519,0-3.05,0.022-4.584,0.056
				c-0.935,0.018-1.867,0.046-2.799,0.075c-0.074,0.003-0.147,0.004-0.221,0.006V22.812z M233.188,263.604h-79.339
				c0.891-15.071,4.222-34.884,9.457-55.851l-14.755-3.684c-5.63,22.546-9.078,43.311-9.939,59.535H43.73
				c3.539-100.106,76.693-182.786,172.411-201.034c-7.427,7.222-14.731,16.482-21.886,27.783
				c-15.243,24.077-29.554,57.411-40.298,93.86l14.587,4.3c10.356-35.135,24.051-67.107,38.56-90.025
				C218.566,80.384,236.352,58.804,256,58.804c22.946,0,48.741,30.092,70.774,82.562c18.968,45.174,29.67,93.552,31.378,122.238
				h-79.34H233.188z"/>
			<rect x="178.693" y="233.188" width="154.614" height="15.208"/>
		</g>
	</g>
</g>
</svg>